<svg xmlns="http://www.w3.org/2000/svg" width="24" height="12" viewBox="0 0 24 12">
    <path class="icon_fill" fill="#1593e6"
          d="M18,18H6l0-.623c0-1.259.1-1.986,1.588-2.33,1.684-.389,3.344-.736,2.545-2.209C7.767,8.475,9.459,6,12,6c2.491,0,4.226,2.383,1.866,6.839-.775,1.464.826,1.812,2.545,2.209C17.9,15.392,18,16.12,18,17.381L18,18Zm4.811-2.214c-1.29-.3-2.49-.559-1.909-1.657C22.668,10.787,21.368,9,19.5,9a2.145,2.145,0,0,0-2.248,2.324c0,3.9,2.268,1.77,2.246,6.676H24l0-.463c0-.946-.074-1.493-1.192-1.751ZM0,18H4.5c-.021-4.906,2.246-2.772,2.246-6.676A2.145,2.145,0,0,0,4.5,9c-1.869,0-3.169,1.787-1.4,5.129.581,1.1-.619,1.359-1.909,1.657C.074,16.044,0,16.591,0,17.537L0,18Z"
          transform="translate(0 -6)"/>
</svg>