<svg xmlns="http://www.w3.org/2000/svg" width="24" height="22" viewBox="0 0 24 22">
    <path class="icon_fill" fill="#8ad1ff"
          d="M19.1,11.136c-1.449,1.97-3.6,3.914-6.021,3.6a38.7,38.7,0,0,0-2.2,3.678L9,19a47.135,47.135,0,0,1,5.989-9.136,27.533,27.533,0,0,0-4.016,3.479c-1.271-2.656.069-5.115,2.012-6.994a3.472,3.472,0,0,0,.631,2.107,6.956,6.956,0,0,1,.576-3.207A16.881,16.881,0,0,1,17.324,3.1a3.143,3.143,0,0,0,.182,1.907,5.979,5.979,0,0,1,.955-2.462A10.23,10.23,0,0,1,24,1a13.79,13.79,0,0,1-1.877,4.821,7.254,7.254,0,0,1-2.566.913,6.163,6.163,0,0,0,2.052.192,24.353,24.353,0,0,1-1.667,3,7.728,7.728,0,0,1-3.135.846,4.062,4.062,0,0,0,2.292.363ZM18,15.145V21H2V9H8.875a8.778,8.778,0,0,1,.979-2H0V23H20V13.212A12.764,12.764,0,0,1,18,15.145Z"
          transform="translate(0 -1)"/>
</svg>