<svg xmlns="http://www.w3.org/2000/svg" width="20.673" height="21.5" viewBox="0 0 20.673 21.5">
  <g id="Icon_ionic-ios-boat" data-name="Icon ionic-ios-boat" transform="translate(-3.938 -3.375)">
    <path id="Path_662" data-name="Path 662" d="M19.969,29.672a17.039,17.039,0,0,1-4.967.77,17.039,17.039,0,0,1-4.967-.77,10.14,10.14,0,0,1-3.22,1.871.1.1,0,0,0,.047.2,21.676,21.676,0,0,0,3.173-.62A16.6,16.6,0,0,0,15,31.843a14.769,14.769,0,0,0,4.967-.718,20.439,20.439,0,0,0,3.2.625.1.1,0,0,0,.047-.2A11,11,0,0,1,19.969,29.672Z" transform="translate(-0.744 -6.968)" fill="#1593e6"/>
    <path id="Path_663" data-name="Path 663" d="M24.068,16.885h0l-9.623-4.419a.406.406,0,0,0-.346,0L4.48,16.885h0a.934.934,0,0,0-.543.848A.96.96,0,0,0,4,18.079L6.832,25.1a5.883,5.883,0,0,0,2.93-1.137,12.506,12.506,0,0,0,4.1.961c.145.01.284.01.413.01s.269-.005.413-.01a12.377,12.377,0,0,0,4.1-.961,5.883,5.883,0,0,0,2.93,1.137l2.827-7.024a.96.96,0,0,0,.067-.346A.934.934,0,0,0,24.068,16.885ZM12,18.177c-.341,0-.62-.506-.62-1.137S11.659,15.9,12,15.9s.62.506.62,1.137S12.341,18.177,12,18.177Zm4.548,0c-.341,0-.62-.506-.62-1.137s.279-1.137.62-1.137.62.506.62,1.137S16.889,18.177,16.548,18.177Z" transform="translate(0 -2.399)" fill="#1593e6"/>
    <path id="Path_664" data-name="Path 664" d="M22.153,7.458V7.453c-.289-1.375-.9-2.424-2.062-2.424H18.3l-.1-.413a1.654,1.654,0,0,0-1.6-1.24H13.651a1.653,1.653,0,0,0-1.6,1.246l-.1.408H10.168c-1.184,0-1.814,1.07-2.057,2.429l-.941,5a.207.207,0,0,0,.289.227l1.308-.6a.208.208,0,0,0,.119-.15l.837-4.424c.129-.553.377-.827.832-.827h9.153c.46,0,.677.258.832.827l.837,4.424a.2.2,0,0,0,.119.15l1.313.6a.206.206,0,0,0,.289-.227Z" transform="translate(-0.856)" fill="#1593e6"/>
  </g>
</svg>
