<svg xmlns="http://www.w3.org/2000/svg" width="23.833" height="22" viewBox="0 0 23.833 22">
  <g id="Icon_ionic-ios-calendar" data-name="Icon ionic-ios-calendar" transform="translate(-3.375 -4.5)">
    <path id="Path_665" data-name="Path 665" d="M24.917,6.75H22.625V8.1a.455.455,0,0,1-.458.449H21.25a.455.455,0,0,1-.458-.449V6.75h-11V8.1a.455.455,0,0,1-.458.449H8.417A.455.455,0,0,1,7.958,8.1V6.75H5.667A2.275,2.275,0,0,0,3.375,8.994V24.256A2.275,2.275,0,0,0,5.667,26.5h19.25a2.275,2.275,0,0,0,2.292-2.244V8.994A2.275,2.275,0,0,0,24.917,6.75Zm.458,16.832A1.138,1.138,0,0,1,24.229,24.7H6.354a1.138,1.138,0,0,1-1.146-1.122v-10.1a.455.455,0,0,1,.458-.449h19.25a.455.455,0,0,1,.458.449Z" fill="#1593e6"/>
    <path id="Path_666" data-name="Path 666" d="M11.25,5.063a.564.564,0,0,0-.562-.562H9.563A.564.564,0,0,0,9,5.063V6.75h2.25Z" transform="translate(-1.128)" fill="#1593e6"/>
    <path id="Path_667" data-name="Path 667" d="M27,5.063a.564.564,0,0,0-.562-.562H25.313a.564.564,0,0,0-.562.563V6.75H27Z" transform="translate(-4.288)" fill="#1593e6"/>
  </g>
</svg>
