<svg xmlns="http://www.w3.org/2000/svg" width="18.823" height="18" viewBox="0 0 18.823 18">
  <g id="category" transform="translate(-245.989 -32.949)" fill="none" stroke-linecap="round" stroke-linejoin="round">
    <path d="M255.4,33.949l2.6,5.267,5.812.845-4.206,4.1.993,5.789-5.2-2.733-5.2,2.733.993-5.789-4.206-4.1,5.812-.845Z" stroke="none"/>
    <path d="M 255.4011840820313 33.94926834106445 L 252.8018493652344 39.21613693237305 L 246.989501953125 40.06071853637695 L 251.1953430175781 44.16040802001953 L 250.2024841308594 49.94926834106445 L 255.4011840820313 47.21613693237305 L 260.5999145507813 49.94926834106445 L 259.6070251464844 44.16040802001953 L 263.8128662109375 40.06071853637695 L 258.0005493164063 39.21613693237305 L 255.4011840820313 33.94926834106445 M 255.4011840820313 32.94926834106445 C 255.7818298339844 32.94926834106445 256.1294555664063 33.16536712646484 256.2979125976563 33.50669860839844 L 258.6646118164063 38.30212783813477 L 263.9566650390625 39.07110977172852 C 264.3333435058594 39.12584686279297 264.6463012695313 39.38968658447266 264.763916015625 39.7516975402832 C 264.8815307617188 40.11370849609375 264.783447265625 40.5111083984375 264.5108642578125 40.77680969238281 L 260.6815185546875 44.50952529907227 L 261.5855102539063 49.78022003173828 C 261.6498413085938 50.15538787841797 261.4956665039063 50.53454971313477 261.1876831054688 50.7582893371582 C 261.0134887695313 50.88486099243164 260.8071594238281 50.94927215576172 260.5997924804688 50.94927215576172 C 260.4406433105469 50.94927215576172 260.2808837890625 50.91131973266602 260.1345825195313 50.83440017700195 L 255.4011840820313 48.34591293334961 L 250.6678161621094 50.83440017700195 C 250.5215454101563 50.91130828857422 250.3617248535156 50.94927215576172 250.2025756835938 50.94927215576172 C 249.9952087402344 50.94927215576172 249.7889404296875 50.88487243652344 249.6147155761719 50.7582893371582 C 249.3067626953125 50.53454971313477 249.1525268554688 50.15538787841797 249.2168884277344 49.78022766113281 L 250.120849609375 44.50952911376953 L 246.29150390625 40.77680969238281 C 246.0189208984375 40.5111083984375 245.9208374023438 40.11370849609375 246.0384521484375 39.7516975402832 C 246.1560668945313 39.38968658447266 246.4690246582031 39.12584686279297 246.845703125 39.07110977172852 L 252.1377868652344 38.30212783813477 L 254.5044555664063 33.50671005249023 C 254.6729125976563 33.16536712646484 255.0205383300781 32.94926834106445 255.4011840820313 32.94926834106445 Z" stroke="none" fill="#b8b8b8"/>
  </g>
</svg>
