<svg xmlns="http://www.w3.org/2000/svg" width="11.733" height="12" viewBox="0 0 11.733 12">
  <g id="construction" transform="translate(-238.001 -764)">
    <g id="Group_748" data-name="Group 748" transform="translate(-538.939 -38.376)">
      <path id="Path_581" data-name="Path 581" d="M.212,0H-.739a.273.273,0,0,0-.272.272v.951a.273.273,0,0,0,.272.272H.212a.273.273,0,0,0,.272-.272V.272A.273.273,0,0,0,.212,0" transform="translate(780.695 808.724)" fill="#42b5ff"/>
      <path id="Path_582" data-name="Path 582" d="M.212,0H-.739a.273.273,0,0,0-.272.272v.951a.273.273,0,0,0,.272.272H.212a.273.273,0,0,0,.272-.272V.272A.273.273,0,0,0,.212,0" transform="translate(783.071 808.724)" fill="#42b5ff"/>
      <path id="Path_583" data-name="Path 583" d="M.212,0H-.739a.273.273,0,0,0-.272.272v.951a.273.273,0,0,0,.272.272H.212a.273.273,0,0,0,.272-.272V.272A.273.273,0,0,0,.212,0" transform="translate(785.446 808.724)" fill="#42b5ff"/>
      <path id="Path_584" data-name="Path 584" d="M.212,0H-.739a.273.273,0,0,0-.272.272v.951a.273.273,0,0,0,.272.272H.212a.273.273,0,0,0,.272-.272V.272A.273.273,0,0,0,.212,0" transform="translate(780.695 811.1)" fill="#42b5ff"/>
      <path id="Path_585" data-name="Path 585" d="M.212,0H-.739a.273.273,0,0,0-.272.272v.951a.273.273,0,0,0,.272.272H.212a.273.273,0,0,0,.272-.272V.272A.273.273,0,0,0,.212,0" transform="translate(783.071 811.1)" fill="#42b5ff"/>
      <path id="Path_586" data-name="Path 586" d="M.212,0H-.739a.273.273,0,0,0-.272.272v.951a.273.273,0,0,0,.272.272H.212a.273.273,0,0,0,.272-.272V.272A.273.273,0,0,0,.212,0" transform="translate(785.446 811.1)" fill="#42b5ff"/>
      <path id="Path_587" data-name="Path 587" d="M1.851,0V1.452A1.186,1.186,0,0,1,.664,2.637h-.75a1.193,1.193,0,0,1-1.2-1.185V0H-4.66V1.452A1.192,1.192,0,0,1-5.855,2.637h-.75A1.186,1.186,0,0,1-7.793,1.452V0A1.08,1.08,0,0,0-8.838,1.076V9.582a1.082,1.082,0,0,0,1.076,1.082H1.82A1.082,1.082,0,0,0,2.9,9.582V1.076A1.079,1.079,0,0,0,1.851,0M1.5,9.053a.465.465,0,0,1-.464.464H-7a.465.465,0,0,1-.464-.464V4.659A.466.466,0,0,1-7,4.193H1.039a.466.466,0,0,1,.464.466Z" transform="translate(785.778 803.711)" fill="#42b5ff"/>
      <path id="Path_588" data-name="Path 588" d="M.071.553H.812A.408.408,0,0,0,1.22.146V-2.233a.408.408,0,0,0-.408-.408H.071a.408.408,0,0,0-.408.408V.146A.408.408,0,0,0,.071.553" transform="translate(779.1 805.017)" fill="#42b5ff"/>
      <path id="Path_589" data-name="Path 589" d="M.071.553H.812A.408.408,0,0,0,1.22.146V-2.233a.408.408,0,0,0-.408-.408H.071a.408.408,0,0,0-.408.408V.146A.408.408,0,0,0,.071.553" transform="translate(785.612 805.017)" fill="#42b5ff"/>
    </g>
  </g>
</svg>
