<svg xmlns="http://www.w3.org/2000/svg" width="23.952" height="25.814" viewBox="0 0 23.952 25.814">
    <path class="icon_fill" fill="#9E9E9E"
          d="M21.851,1.862H18.987v-.9a.61.61,0,1,0-1.219,0v.9H12.575V.784a.61.61,0,0,0-1.219,0V1.862H6.173V.61a.606.606,0,0,0-.6-.61.616.616,0,0,0-.61.61V1.862H2.1A2.1,2.1,0,0,0,0,3.963V23.712a2.1,2.1,0,0,0,2.1,2.1H21.851a2.1,2.1,0,0,0,2.1-2.1V3.963A2.1,2.1,0,0,0,21.851,1.862Zm1.013,21.851a1.018,1.018,0,0,1-1.013,1.013H2.1a1.018,1.018,0,0,1-1.013-1.013V8.089H22.863ZM1.089,7V3.963A1.018,1.018,0,0,1,2.1,2.95H4.965V4.072a.61.61,0,1,0,1.219,0V2.95h5.193v1.3a.61.61,0,0,0,1.219,0V2.95H17.79V4.42a.61.61,0,1,0,1.219,0V2.95h2.863a1.018,1.018,0,0,1,1.013,1.013V7H1.089Z"/>
    <path class="icon_fill" fill="#9E9E9E" d="M5.188,11.777a.838.838,0,1,0-.838-.838A.839.839,0,0,0,5.188,11.777Z"
          transform="translate(0.386 0.896)"/>
    <path class="icon_fill" fill="#9E9E9E" d="M11.068,11.777a.838.838,0,1,0-.838-.838A.839.839,0,0,0,11.068,11.777Z"
          transform="translate(0.908 0.896)"/>
    <path class="icon_fill" fill="#9E9E9E" d="M16.948,11.777a.838.838,0,1,0-.838-.838A.839.839,0,0,0,16.948,11.777Z"
          transform="translate(1.429 0.896)"/>
    <path class="icon_fill" fill="#9E9E9E" d="M5.188,16.147a.838.838,0,1,0-.838-.838A.839.839,0,0,0,5.188,16.147Z"
          transform="translate(0.386 1.284)"/>
    <ellipse class="icon_fill" fill="#9E9E9E" cx="0.838" cy="0.838" rx="0.838" ry="0.838" transform="translate(11.138 15.754)"/>
    <ellipse class="icon_fill" fill="#9E9E9E" cx="0.838" cy="0.838" rx="0.838" ry="0.838" transform="translate(17.539 15.754)"/>
    <path class="icon_fill" fill="#9E9E9E" d="M5.188,20.517a.838.838,0,1,0-.838-.838A.839.839,0,0,0,5.188,20.517Z"
          transform="translate(0.386 1.672)"/>
    <path class="icon_fill" fill="#9E9E9E" d="M11.068,20.517a.838.838,0,1,0-.838-.838A.839.839,0,0,0,11.068,20.517Z"
          transform="translate(0.908 1.672)"/>
    <path class="icon_fill" fill="#9E9E9E" d="M16.948,20.517a.838.838,0,1,0-.838-.838A.839.839,0,0,0,16.948,20.517Z"
          transform="translate(1.429 1.672)"/>
</svg>