<svg id="date" xmlns="http://www.w3.org/2000/svg" width="16" height="14.222" viewBox="0 0 16 14.222">
  <g id="Group_985" data-name="Group 985" transform="translate(0 1.209)">
    <path id="Path_679" data-name="Path 679" d="M15.289,14.713H.711A.672.672,0,0,1,0,14V2.411A.672.672,0,0,1,.711,1.7H15.289A.672.672,0,0,1,16,2.411V14a.672.672,0,0,1-.711.711ZM1.422,13.291H14.578V3.122H1.422V13.291Z" transform="translate(0 -1.7)" fill="#b8b8b8"/>
  </g>
  <g id="Group_988" data-name="Group 988" transform="translate(2.773)">
    <g id="Group_986" data-name="Group 986" transform="translate(9.031)">
      <path id="Path_680" data-name="Path 680" d="M17.311,3.769a.672.672,0,0,1-.711-.711V.711a.711.711,0,1,1,1.422,0V3.058a.672.672,0,0,1-.711.711Z" transform="translate(-16.6)" fill="#b8b8b8"/>
    </g>
    <g id="Group_987" data-name="Group 987">
      <path id="Path_681" data-name="Path 681" d="M4.611,3.769A.672.672,0,0,1,3.9,3.058V.711A.672.672,0,0,1,4.611,0a.672.672,0,0,1,.711.711V3.058a.713.713,0,0,1-.711.711Z" transform="translate(-3.9)" fill="#b8b8b8"/>
    </g>
  </g>
  <g id="Group_989" data-name="Group 989" transform="translate(0.427 4.934)">
    <path id="Path_682" data-name="Path 682" d="M15.391,9.253H.956C.742,9.253.6,8.922.6,8.426S.742,7.6.956,7.6H15.391c.213,0,.356.331.356.826,0,.331-.142.826-.356.826Z" transform="translate(-0.6 -7.6)" fill="#b8b8b8"/>
  </g>
</svg>
