<svg xmlns="http://www.w3.org/2000/svg" width="24" height="24" viewBox="0 0 24 24" style="margin-right: 12px; margin-left: -7;">
    <g id="dollar" transform="translate(-458 -3233)">
        <circle id="Ellipse_156" data-name="Ellipse 156" cx="12" cy="12" r="12" transform="translate(458 3233)" fill="#fff"/>
        <path id="Icon_material-attach-money" data-name="Icon material-attach-money" d="M13.742,10.644c-1.766-.459-2.333-.933-2.333-1.672,0-.848.786-1.439,2.1-1.439,1.384,0,1.9.661,1.944,1.633h1.719a3.1,3.1,0,0,0-2.5-2.963V4.5H12.342V6.18C10.833,6.507,9.62,7.487,9.62,8.988c0,1.8,1.486,2.691,3.656,3.212,1.944.467,2.333,1.151,2.333,1.874,0,.537-.381,1.392-2.1,1.392-1.6,0-2.232-.716-2.318-1.633H9.48a3.259,3.259,0,0,0,2.862,2.979V18.5h2.333V16.828c1.517-.288,2.722-1.167,2.722-2.761C17.4,11.858,15.508,11.1,13.742,10.644Z" transform="translate(456.52 3233.5)" fill="#e6b515"/>
    </g>
</svg>