<svg xmlns="http://www.w3.org/2000/svg" width="22" height="22" viewBox="0 0 22 22">
  <path id="Icon_awesome-bus" data-name="Icon awesome-bus" d="M20.969,5.5h-.344V3.438C20.625,1.512,16.362,0,11,0S1.375,1.512,1.375,3.438V5.5H1.031A1.031,1.031,0,0,0,0,6.531V9.969A1.032,1.032,0,0,0,1.031,11h.344v6.875A1.375,1.375,0,0,0,2.75,19.25v1.375A1.375,1.375,0,0,0,4.125,22H5.5a1.375,1.375,0,0,0,1.375-1.375V19.25h8.25v1.375A1.375,1.375,0,0,0,16.5,22h1.375a1.375,1.375,0,0,0,1.375-1.375V19.25h.275a1.085,1.085,0,0,0,1.1-1.1V11h.344A1.032,1.032,0,0,0,22,9.969V6.531A1.031,1.031,0,0,0,20.969,5.5ZM4.813,17.188a1.375,1.375,0,1,1,1.375-1.375A1.375,1.375,0,0,1,4.813,17.188ZM5.5,12.375A1.375,1.375,0,0,1,4.125,11V5.5A1.375,1.375,0,0,1,5.5,4.125h11A1.375,1.375,0,0,1,17.875,5.5V11A1.375,1.375,0,0,1,16.5,12.375Zm11.688,4.813a1.375,1.375,0,1,1,1.375-1.375A1.375,1.375,0,0,1,17.188,17.188Z" fill="#1593e6"/>
</svg>
