<svg xmlns="http://www.w3.org/2000/svg" width="312.428" height="76.201" viewBox="0 0 312.428 76.201">
    <g id="Group_370" data-name="Group 370" transform="translate(-497.124 -221.84)">
        <g id="Group_370-2" data-name="Group 370" transform="translate(590.065 221.868)">
            <path id="Path_511" data-name="Path 511"
                  d="M604.338,232.763a14.883,14.883,0,0,0-10.36-4.236c-8.3,0-13.911,6.126-13.911,14.541,0,8.072,5.838,14.311,13.968,14.311a15.146,15.146,0,0,0,10.3-4.408V259.9a20.828,20.828,0,0,1-10.476,2.862,19.122,19.122,0,0,1-13.509-5.266,18.718,18.718,0,0,1-6.125-14.426,19.971,19.971,0,0,1,6.125-14.941c3.949-3.722,8.531-4.981,13.8-4.981a18.141,18.141,0,0,1,10.188,2.748Z"
                  transform="translate(-574.229 -221.6)" fill="#1d3d59"/>
            <path id="Path_512" data-name="Path 512"
                  d="M612.006,223.716c4.638,0,7.614.571,10.076,2.232a10.653,10.653,0,0,1,4.523,8.987,10.471,10.471,0,0,1-8.473,10.647L630.038,261.9H623L612.062,246.27h-1.031V261.9h-5.838V223.716Zm-.974,17.518h1.833c1.6,0,8.129-.171,8.129-6.24,0-5.381-5.1-5.9-7.958-5.9h-2Z"
                  transform="translate(-567.869 -221.482)" fill="#1d3d59"/>
            <path id="Path_513" data-name="Path 513"
                  d="M668.764,242.954A19.865,19.865,0,1,1,648.9,223.146,19.369,19.369,0,0,1,668.764,242.954Zm-5.84,0c0-8.474-5.838-14.427-14.025-14.427s-14.026,5.953-14.026,14.427,5.84,14.425,14.026,14.425S662.924,251.425,662.924,242.954Z"
                  transform="translate(-562.973 -221.6)" fill="#1d3d59"/>
            <path id="Path_514" data-name="Path 514"
                  d="M690.308,253.063H673.992l-4.179,9.216h-6.3l19.006-40.416,18.09,40.416h-6.3Zm-2.348-5.5-5.667-12.937-5.9,12.937Z"
                  transform="translate(-555.891 -221.863)" fill="#1d3d59"/>
            <path id="Path_515" data-name="Path 515" d="M707.654,229.213V261.9h-5.838V229.213h-8.758v-5.5h23.354v5.5Z"
                  transform="translate(-549.824 -221.482)" fill="#1d3d59"/>
            <path id="Path_516" data-name="Path 516" d="M722.547,223.716V261.9h-5.839V223.716Z"
                  transform="translate(-544.966 -221.482)" fill="#1d3d59"/>
            <path id="Path_517" data-name="Path 517"
                  d="M752.334,253.063H736.018l-4.179,9.216h-6.3l19.005-40.416,18.092,40.416h-6.3Zm-2.348-5.5-5.667-12.937-5.9,12.937Z"
                  transform="translate(-543.152 -221.863)" fill="#1d3d59"/>
        </g>
        <g id="Group_371" data-name="Group 371" transform="translate(593.852 281.076)">
            <path id="Path_518" data-name="Path 518"
                  d="M587.172,285.74v-5.85h-6.046v5.85h-3.755V271.181h3.755v5.436h6.046v-5.436h3.754V285.74Z"
                  transform="translate(-577.371 -270.942)" fill="#e54b50"/>
            <path id="Path_519" data-name="Path 519"
                  d="M602.848,278.512c0-4.431,3.338-7.529,7.79-7.529a7.533,7.533,0,1,1,0,15.059C606.186,286.042,602.848,282.944,602.848,278.512Zm11.742,0a3.968,3.968,0,1,0-3.951,4.213A3.922,3.922,0,0,0,614.59,278.512Z"
                  transform="translate(-572.138 -270.983)" fill="#e54b50"/>
            <path id="Path_520" data-name="Path 520" d="M629.954,285.74V271.181h3.755v11.286h5.849v3.273Z"
                  transform="translate(-566.571 -270.942)" fill="#e54b50"/>
            <path id="Path_521" data-name="Path 521" d="M652.191,285.74V271.181h3.754V285.74Z"
                  transform="translate(-562.004 -270.942)" fill="#e54b50"/>
            <path id="Path_522" data-name="Path 522"
                  d="M670.152,285.74V271.181h6.111c4.584,0,7.88,2.751,7.88,7.27s-3.3,7.289-7.857,7.289Zm10.151-7.289a3.728,3.728,0,0,0-4.016-3.995h-2.379v8.011h2.356A3.867,3.867,0,0,0,680.3,278.451Z"
                  transform="translate(-558.315 -270.942)" fill="#e54b50"/>
            <path id="Path_523" data-name="Path 523"
                  d="M705.564,285.74l-.721-2.095H699.1l-.718,2.095h-4.256l5.476-14.559h4.737l5.479,14.559Zm-3.58-10.847-1.856,5.478h3.688Z"
                  transform="translate(-553.391 -270.942)" fill="#e54b50"/>
            <path id="Path_524" data-name="Path 524"
                  d="M723.713,285.74v-5.873l-5.521-8.686h4.233l3.164,5.371,3.121-5.371h4.256l-5.5,8.686v5.873Z"
                  transform="translate(-548.449 -270.942)" fill="#e54b50"/>
            <path id="Path_525" data-name="Path 525"
                  d="M742.781,283.724l1.988-2.924a6.581,6.581,0,0,0,4.668,1.921c1.267,0,2.053-.436,2.053-1.157,0-1.919-8.229-.328-8.229-5.935,0-2.446,2.052-4.627,5.783-4.627a8.885,8.885,0,0,1,5.915,2.03l-2.052,2.815a6.754,6.754,0,0,0-4.256-1.528c-1.09,0-1.571.374-1.571,1.007,0,1.788,8.229.435,8.229,5.848,0,2.923-2.161,4.866-6.069,4.866A8.994,8.994,0,0,1,742.781,283.724Z"
                  transform="translate(-543.399 -270.979)" fill="#e54b50"/>
        </g>
        <g id="Group_374" data-name="Group 374" transform="translate(497.124 221.84)">
            <path id="Path_526" data-name="Path 526" d="M527.8,283.284a8.355,8.355,0,0,0-3.335,2.137H527.8Z"
                  transform="translate(-491.51 -209.22)" fill="#1d3d59"/>
            <path id="Path_527" data-name="Path 527" d="M497.124,283.283v2.138h3.34A8.355,8.355,0,0,0,497.124,283.283Z"
                  transform="translate(-497.124 -209.22)" fill="#1d3d59"/>
            <path id="Path_528" data-name="Path 528"
                  d="M513.133,283.006a7.468,7.468,0,0,0-5.594,2.472h11.187A7.468,7.468,0,0,0,513.133,283.006Z"
                  transform="translate(-494.985 -209.277)" fill="#1d3d59"/>
            <g id="Group_372" data-name="Group 372">
                <path id="Path_529" data-name="Path 529"
                      d="M524.689,227.009l1.756-1.756a20.919,20.919,0,0,0-4.453-3.412h-7.229A18.382,18.382,0,0,1,524.689,227.009Z"
                      transform="translate(-493.501 -221.84)" fill="#1d3d59"/>
                <path id="Path_530" data-name="Path 530"
                      d="M512.85,233.609a3.957,3.957,0,1,0,2.794,6.757l-1.751-1.753a1.481,1.481,0,1,1,.035-2.056l1.754-1.753A3.947,3.947,0,0,0,512.85,233.609Z"
                      transform="translate(-494.707 -219.422)" fill="#1d3d59"/>
                <path id="Path_531" data-name="Path 531"
                      d="M526.521,223.02l1.111-1.11v-.07H525.26Q525.913,222.408,526.521,223.02Z"
                      transform="translate(-491.345 -221.84)" fill="#1d3d59"/>
                <path id="Path_532" data-name="Path 532" d="M499.5,221.84h-2.372v2.371A24.2,24.2,0,0,1,499.5,221.84Z"
                      transform="translate(-497.124 -221.84)" fill="#1d3d59"/>
                <path id="Path_533" data-name="Path 533" d="M526.484,251q-.591.591-1.223,1.142h2.366Z"
                      transform="translate(-491.345 -215.851)" fill="#1d3d59"/>
                <path id="Path_534" data-name="Path 534"
                      d="M524.652,247.687a18.372,18.372,0,0,1-9.888,5.13h7.229a20.915,20.915,0,0,0,4.415-3.374Z"
                      transform="translate(-493.501 -216.531)" fill="#1d3d59"/>
                <path id="Path_535" data-name="Path 535"
                      d="M497.124,239.48v7.229a20.976,20.976,0,0,0,7.8,7.794h7.227A18.455,18.455,0,0,1,497.124,239.48Z"
                      transform="translate(-497.124 -218.217)" fill="#1d3d59"/>
                <path id="Path_536" data-name="Path 536"
                      d="M512.147,221.84h-7.227a20.976,20.976,0,0,0-7.8,7.794v7.229A18.455,18.455,0,0,1,512.147,221.84Z"
                      transform="translate(-497.124 -221.84)" fill="#1d3d59"/>
                <path id="Path_537" data-name="Path 537"
                      d="M497.124,249.976v2.371H499.5A24.335,24.335,0,0,1,497.124,249.976Z"
                      transform="translate(-497.124 -216.061)" fill="#1d3d59"/>
                <path id="Path_538" data-name="Path 538"
                      d="M525.471,275.094c-2.047,0-3.013-.939-4.237-2.126-1.364-1.325-2.91-2.827-5.962-2.827s-4.6,1.5-5.963,2.827c-1.224,1.187-2.19,2.126-4.238,2.126s-3.015-.939-4.238-2.126a9.145,9.145,0,0,0-3.709-2.493v2.672a9.035,9.035,0,0,1,1.984,1.6c1.365,1.325,2.911,2.825,5.963,2.825s4.6-1.5,5.963-2.825c1.223-1.189,2.19-2.127,4.238-2.127s3.013.939,4.237,2.127c1.363,1.325,2.91,2.825,5.962,2.825s4.6-1.5,5.962-2.825a9.032,9.032,0,0,1,1.978-1.595v-2.674a9.142,9.142,0,0,0-3.7,2.492C528.484,274.156,527.518,275.094,525.471,275.094Z"
                      transform="translate(-497.124 -211.919)" fill="#1d3d59"/>
                <path id="Path_539" data-name="Path 539"
                      d="M499.108,261.878c1.365,1.325,2.911,2.827,5.963,2.827s4.6-1.5,5.963-2.827c1.223-1.187,2.19-2.126,4.238-2.126s3.013.938,4.237,2.126c1.363,1.325,2.91,2.827,5.962,2.827s4.6-1.5,5.962-2.827a9.067,9.067,0,0,1,1.978-1.595V257.61a9.144,9.144,0,0,0-3.7,2.493c-1.222,1.187-2.189,2.125-4.236,2.125s-3.013-.938-4.237-2.126c-1.364-1.325-2.91-2.827-5.962-2.827s-4.6,1.5-5.963,2.827c-1.224,1.189-2.19,2.126-4.238,2.126s-3.015-.938-4.238-2.126a9.146,9.146,0,0,0-3.709-2.493v2.672A9.071,9.071,0,0,1,499.108,261.878Z"
                      transform="translate(-497.124 -214.562)" fill="#1d3d59"/>
                <path id="Path_540" data-name="Path 540"
                      d="M529.707,266.535c-1.222,1.189-2.189,2.126-4.236,2.126s-3.013-.938-4.237-2.126c-1.364-1.325-2.91-2.827-5.962-2.827s-4.6,1.5-5.963,2.827c-1.224,1.189-2.19,2.126-4.238,2.126s-3.015-.938-4.238-2.126a9.146,9.146,0,0,0-3.709-2.493v2.672a9.072,9.072,0,0,1,1.984,1.6c1.365,1.325,2.911,2.827,5.963,2.827s4.6-1.5,5.963-2.827c1.223-1.189,2.19-2.126,4.238-2.126s3.013.938,4.237,2.126c1.363,1.325,2.91,2.827,5.962,2.827s4.6-1.5,5.962-2.827a9.03,9.03,0,0,1,1.978-1.595v-2.674A9.142,9.142,0,0,0,529.707,266.535Z"
                      transform="translate(-497.124 -213.241)" fill="#1d3d59"/>
                <path id="Path_541" data-name="Path 541"
                      d="M505.071,284c3.053,0,4.6-1.5,5.963-2.827,1.223-1.187,2.19-2.126,4.238-2.126s3.013.939,4.237,2.126c1.363,1.325,2.91,2.827,5.962,2.827s4.6-1.5,5.962-2.827a9.066,9.066,0,0,1,1.978-1.595v-2.674a9.156,9.156,0,0,0-3.7,2.493c-1.222,1.187-2.189,2.126-4.236,2.126s-3.013-.939-4.237-2.126c-1.364-1.326-2.91-2.827-5.962-2.827s-4.6,1.5-5.963,2.827c-1.224,1.187-2.19,2.126-4.238,2.126s-3.015-.939-4.238-2.126a9.135,9.135,0,0,0-3.709-2.494v2.674a9.03,9.03,0,0,1,1.984,1.6C500.473,282.5,502.019,284,505.071,284Z"
                      transform="translate(-497.124 -210.598)" fill="#1d3d59"/>
                <path id="Path_542" data-name="Path 542"
                      d="M504.668,257.427a7.469,7.469,0,0,0,5.6-2.473H499.071A7.47,7.47,0,0,0,504.668,257.427Z"
                      transform="translate(-496.724 -215.039)" fill="#1d3d59"/>
                <path id="Path_543" data-name="Path 543"
                      d="M521.591,257.427a7.469,7.469,0,0,0,5.594-2.473H516A7.47,7.47,0,0,0,521.591,257.427Z"
                      transform="translate(-493.248 -215.039)" fill="#1d3d59"/>
                <path id="Path_544" data-name="Path 544" d="M537.986,249.334l-3.706,3.145h7.414Z"
                      transform="translate(-489.493 -216.193)" fill="#1d3d59"/>
                <path id="Path_545" data-name="Path 545"
                      d="M557.94,242.489l-9.562,8.111-9.561-8.111-8.578,7.279v3.145l8.578-7.279,9.561,8.11,9.562-8.111,8.585,7.281V249.77Z"
                      transform="translate(-490.323 -217.599)" fill="#1d3d59"/>
                <path id="Path_546" data-name="Path 546" d="M553.851,249.334l-3.707,3.145h7.415Z"
                      transform="translate(-486.235 -216.193)" fill="#1d3d59"/>
                <path id="Path_547" data-name="Path 547"
                      d="M557.94,235.643l-9.562,8.111-9.561-8.111-8.578,7.279v3.145l8.578-7.279,9.561,8.11,9.562-8.111,8.585,7.281v-3.144Z"
                      transform="translate(-490.323 -219.005)" fill="#1d3d59"/>
                <path id="Path_548" data-name="Path 548"
                      d="M557.94,221.952l-9.562,8.111-9.561-8.111-8.578,7.279v3.145l8.578-7.279,9.561,8.11,9.562-8.111,8.585,7.281v-3.144Z"
                      transform="translate(-490.323 -221.817)" fill="#1d3d59"/>
                <path id="Path_549" data-name="Path 549" d="M560.806,224.148V221.84h-2.722Z"
                      transform="translate(-484.604 -221.84)" fill="#1d3d59"/>
                <path id="Path_550" data-name="Path 550"
                      d="M557.94,228.8l-9.562,8.111-9.561-8.111-8.578,7.279v3.145l8.578-7.279,9.561,8.11,9.562-8.111,8.585,7.281v-3.144Z"
                      transform="translate(-490.323 -220.411)" fill="#1d3d59"/>
                <path id="Path_551" data-name="Path 551" d="M545.917,224.978l3.7-3.138h-7.4Z"
                      transform="translate(-487.863 -221.84)" fill="#1d3d59"/>
                <path id="Path_552" data-name="Path 552" d="M532.957,221.84h-2.719v2.307Z"
                      transform="translate(-490.323 -221.84)" fill="#1d3d59"/>
                <rect id="Rectangle_798" data-name="Rectangle 798" width="2.476" height="36.286"
                      transform="translate(39.915 39.915)" fill="#1d3d59"/>
                <rect id="Rectangle_799" data-name="Rectangle 799" width="2.476" height="36.286"
                      transform="translate(73.725 39.915)" fill="#1d3d59"/>
            </g>
            <g id="Group_373" data-name="Group 373" transform="translate(2.898 2.898)">
                <path id="Path_553" data-name="Path 553"
                      d="M513.812,228.927a9.6,9.6,0,1,0,6.786,16.392l-1.754-1.754a7.126,7.126,0,1,1,.036-10.036l1.754-1.754A9.568,9.568,0,0,0,513.812,228.927Z"
                      transform="translate(-498.566 -223.282)" fill="#e54b50"/>
                <path id="Path_554" data-name="Path 554"
                      d="M523.795,248.517a12.77,12.77,0,1,1,.037-18.016l1.755-1.756a15.244,15.244,0,1,0-.036,21.527Z"
                      transform="translate(-499.528 -224.244)" fill="#e54b50"/>
                <rect id="Rectangle_800" data-name="Rectangle 800" width="2.476" height="36.286"
                      transform="translate(43.779 37.017)" fill="#e54b50"/>
                <path id="Path_555" data-name="Path 555" d="M548.22,254.954v13.524h-4.286V254.954h-2.476v16H550.7v-16Z"
                      transform="translate(-490.916 -217.937)" fill="#e54b50"/>
                <rect id="Rectangle_801" data-name="Rectangle 801" width="2.476" height="36.286"
                      transform="translate(64.065 37.017)" fill="#e54b50"/>
                <path id="Path_556" data-name="Path 556" d="M541.458,271.783v16h2.476V274.26h4.286v13.524H550.7v-16Z"
                      transform="translate(-490.916 -214.48)" fill="#e54b50"/>
            </g>
        </g>
    </g>
</svg>
