<svg width="37" height="51" viewBox="0 0 37 51" fill="none" xmlns="http://www.w3.org/2000/svg">
<path d="M27.75 44.774C25.2525 44.774 23.68 45.5546 22.2925 46.2608C21.09 46.8741 20.1095 47.3759 18.5 47.3759C16.835 47.3759 15.91 46.9113 14.7075 46.2608C13.32 45.5546 11.803 44.774 9.25 44.774C6.697 44.774 5.18 45.5546 3.7925 46.2608C2.59 46.8741 1.628 47.3759 0 47.3759V51C2.4975 51 4.07 50.2194 5.4575 49.5132C6.66 48.8999 7.622 48.3981 9.25 48.3981C10.878 48.3981 11.84 48.8627 13.0425 49.5132C14.43 50.2194 15.947 51 18.5 51C21.053 51 22.57 50.2194 23.9575 49.5132C25.16 48.8999 26.1405 48.3981 27.75 48.3981C29.415 48.3981 30.34 48.8627 31.5425 49.5132C32.93 50.2194 34.4655 51 37 51V47.3759C35.335 47.3759 34.41 46.9113 33.2075 46.2608C31.82 45.5546 30.2475 44.774 27.75 44.774ZM27.75 36.5036C25.2525 36.5036 23.68 37.3028 22.2925 37.9904C21.09 38.5851 20.1095 39.1055 18.5 39.1055C16.835 39.1055 15.91 38.6409 14.7075 37.9904C13.32 37.2842 11.803 36.5036 9.25 36.5036C6.697 36.5036 5.18 37.3028 3.7925 37.9904C2.59 38.5851 1.628 39.1055 0 39.1055V42.7296C2.4975 42.7296 4.07 41.9305 5.4575 41.2428C6.66 40.5923 7.585 40.1277 9.25 40.1277C10.915 40.1277 11.84 40.5923 13.0425 41.2428C14.43 41.949 15.947 42.7296 18.5 42.7296C21.053 42.7296 22.57 41.9305 23.9575 41.2428C25.16 40.5923 26.085 40.1277 27.75 40.1277C29.415 40.1277 30.34 40.5923 31.5425 41.2428C32.93 41.949 34.4655 42.7296 37 42.7296V39.1055C35.335 39.1055 34.41 38.6409 33.2075 37.9904C31.82 37.2842 30.2475 36.5036 27.75 36.5036ZM27.75 28.2332C25.2525 28.2332 23.68 29.0324 22.2925 29.72C21.09 30.3705 20.165 30.8351 18.5 30.8351C16.835 30.8351 15.91 30.3705 14.7075 29.72C13.32 29.0138 11.803 28.2332 9.25 28.2332C6.697 28.2332 5.18 29.0324 3.7925 29.72C2.59 30.3705 1.665 30.8351 0 30.8351V34.4592C2.4975 34.4592 4.07 33.6601 5.4575 32.9724C6.66 32.3777 7.6405 31.8573 9.25 31.8573C10.8595 31.8573 11.84 32.3219 13.0425 32.9724C14.43 33.6787 15.947 34.4592 18.5 34.4592C21.053 34.4592 22.57 33.6601 23.9575 32.9724C25.16 32.3777 26.1405 31.8573 27.75 31.8573C29.415 31.8573 30.34 32.3219 31.5425 32.9724C32.93 33.6787 34.4655 34.4592 37 34.4592V30.8351C35.335 30.8351 34.41 30.3705 33.2075 29.72C31.82 29.0138 30.2475 28.2332 27.75 28.2332Z" fill="#1593E6"/>
<path fill-rule="evenodd" clip-rule="evenodd" d="M31.5816 5.5649C29.8656 3.7979 27.8265 2.39659 25.5816 1.44161C23.3366 0.486589 20.9299 -0.0033398 18.5 1.71347e-05C8.28307 1.71347e-05 0 8.50694 0 19C0 23.075 1.24859 26.8496 3.37456 29.9432C3.5111 29.8718 3.64985 29.7972 3.7925 29.72L3.93711 29.6482C4.47268 29.3822 5.03188 29.1044 5.66572 28.8661C3.66088 26.1319 2.46502 22.7104 2.46502 19.0017C2.46502 14.901 3.92693 11.1517 6.34591 8.27217L6.32947 8.29244L11.5884 13.6935C10.5129 15.1544 9.86667 17.0004 9.86667 19C9.86667 20.9996 10.5129 22.8473 11.6032 24.3301L11.5868 24.3082L7.65409 28.3471C8.13934 28.2748 8.66772 28.2332 9.25 28.2332C9.93771 28.2332 10.5502 28.2898 11.1053 28.3864L13.3332 26.0984C14.7556 27.2029 16.553 27.8666 18.5 27.8666C20.447 27.8666 22.246 27.2029 23.6899 26.0832L23.6685 26.1001L25.9006 28.3926C26.4585 28.2925 27.0699 28.2332 27.75 28.2332C28.3302 28.2332 28.8604 28.2753 29.3501 28.3489L25.4116 24.3064C26.4871 22.8456 27.1333 20.9996 27.1333 19C27.1333 17.0004 26.4871 15.1527 25.3968 13.6698L25.4132 13.6918L30.6722 8.29076C33.0731 11.1484 34.535 14.8977 34.535 18.9983C34.535 22.7002 33.3435 26.1158 31.3321 28.8636C32.0243 29.1212 32.6318 29.427 33.2075 29.72C33.3501 29.7971 33.4887 29.8716 33.6251 29.943C35.7511 26.8494 37 23.0743 37 19C37 13.7526 34.9296 9.00347 31.5816 5.5649ZM12.3333 19C12.3333 17.7474 12.695 16.5229 13.3726 15.4814C14.0502 14.4399 15.0133 13.6281 16.1401 13.1487C17.2669 12.6694 18.5068 12.544 19.7031 12.7884C20.8993 13.0327 21.9981 13.6359 22.8605 14.5217C23.7229 15.4074 24.3102 16.5359 24.5482 17.7644C24.7861 18.993 24.664 20.2664 24.1973 21.4236C23.7305 22.5809 22.9401 23.5701 21.926 24.266C20.9119 24.9619 19.7197 25.3333 18.5 25.3333C16.865 25.3315 15.2975 24.6637 14.1414 23.4764C12.9853 22.289 12.3351 20.6791 12.3333 19ZM28.9258 6.50054L23.6668 11.9016C22.2444 10.797 20.447 10.1333 18.5 10.1333C16.553 10.1333 14.754 10.7971 13.3101 11.9168L13.3315 11.8999L8.07258 6.49883C10.855 4.03307 14.5056 2.53163 18.4984 2.53163C22.4911 2.53163 26.1417 4.03307 28.9455 6.51741L28.9258 6.50054Z" fill="#9E9E9E"/>
</svg>
