<svg xmlns="http://www.w3.org/2000/svg" width="27.588" height="13.235" viewBox="0 0 27.588 13.235">
  <g id="icon-capacity" transform="translate(0.5 0.5)">
    <circle id="Ellipse_29" data-name="Ellipse 29" cx="3.423" cy="3.423" r="3.423" transform="translate(9.871)" stroke-width="1" stroke="#1593E6" stroke-linecap="round" stroke-linejoin="round" stroke-miterlimit="10" fill="none"/>
    <path id="Path_81" data-name="Path 81" d="M33.64,14.42A6.165,6.165,0,0,1,37.971,20.3" transform="translate(-18.516 -8.067)" fill="none" stroke="#1593E6" stroke-linecap="round" stroke-linejoin="round" stroke-miterlimit="10" stroke-width="1"/>
    <path id="Path_82" data-name="Path 82" d="M16.13,20.33a6.162,6.162,0,0,1,4.258-5.86" transform="translate(-8.997 -8.095)" fill="none" stroke="#1593E6" stroke-linecap="round" stroke-linejoin="round" stroke-miterlimit="10" stroke-width="1"/>
    <circle id="Ellipse_30" data-name="Ellipse 30" cx="2.61" cy="2.61" r="2.61" transform="translate(19.281 2.875)" stroke-width="1" stroke="#1593E6" stroke-linecap="round" stroke-linejoin="round" stroke-miterlimit="10" fill="none"/>
    <path id="Path_83" data-name="Path 83" d="M51.53,17.48a4.7,4.7,0,0,1,3.3,4.486" transform="translate(-28.242 -9.731)" fill="none" stroke="#1593E6" stroke-linecap="round" stroke-linejoin="round" stroke-miterlimit="10" stroke-width="1"/>
    <path id="Path_84" data-name="Path 84" d="M41.07,18.725A4.711,4.711,0,0,1,43,17.52" transform="translate(-22.555 -9.753)" fill="none" stroke="#1593E6" stroke-linecap="round" stroke-linejoin="round" stroke-miterlimit="10" stroke-width="1"/>
    <circle id="Ellipse_31" data-name="Ellipse 31" cx="2.61" cy="2.61" r="2.61" transform="translate(2.086 2.875)" stroke-width="1" stroke="#1593E6" stroke-linecap="round" stroke-linejoin="round" stroke-miterlimit="10" fill="none"/>
    <path id="Path_85" data-name="Path 85" d="M3.8,17.48A4.7,4.7,0,0,0,.5,21.966" transform="translate(-0.5 -9.731)" fill="none" stroke="#1593E6" stroke-linecap="round" stroke-linejoin="round" stroke-miterlimit="10" stroke-width="1"/>
    <path id="Path_86" data-name="Path 86" d="M15.9,18.725a4.711,4.711,0,0,0-1.926-1.2" transform="translate(-7.823 -9.753)" fill="none" stroke="#1593E6" stroke-linecap="round" stroke-linejoin="round" stroke-miterlimit="10" stroke-width="1"/>
  </g>
</svg>
