<svg id="Group_934" data-name="Group 934" xmlns="http://www.w3.org/2000/svg" width="28.799" height="24" viewBox="0 0 28.799 24">
  <path id="iconmonstr-coin-7" d="M21.6,12.8a6,6,0,1,1-6,6A6.007,6.007,0,0,1,21.6,12.8Zm0-1.2a7.2,7.2,0,1,0,7.2,7.2A7.2,7.2,0,0,0,21.6,11.6Zm-8.893,3.6H9.6V12.8h4.518a9.587,9.587,0,0,0-1.411,2.4ZM12,18.8H9.6V16.4h2.717A9.551,9.551,0,0,0,12,18.8Zm3.272-7.2H9.6V9.2H18v.707A9.6,9.6,0,0,0,15.272,11.6ZM18,4.4H9.6V2H18ZM18,8H9.6V5.6H18ZM12.707,22.4H9.6V20h2.483A9.558,9.558,0,0,0,12.707,22.4ZM0,9.2H8.4v2.4H0Zm0,3.6H8.4v2.4H0ZM15.272,26H9.6V23.6h3.7A9.66,9.66,0,0,0,15.272,26ZM0,20H8.4v2.4H0Zm0,3.6H8.4V26H0Zm0-7.2H8.4v2.4H0Z" transform="translate(0 -2)" fill="#fff"/>
  <path id="Union_1" data-name="Union 1" d="M3.6,4.628,1.028,7.2,0,6.171,2.571,3.6,0,1.028,1.028,0,3.6,2.571,6.171,0,7.2,1.028,4.628,3.6,7.2,6.171,6.171,7.2Z" transform="translate(18.03 13.356)" fill="#fff"/>
</svg>
