<svg xmlns="http://www.w3.org/2000/svg" width="12" height="12.001" viewBox="0 0 12 12.001">
    <path class="icon_fill" fill="#fff"
          d="M8.689,0H3.312A3.315,3.315,0,0,0,0,3.311V8.689A3.316,3.316,0,0,0,3.311,12H8.689A3.316,3.316,0,0,0,12,8.689V3.311A3.314,3.314,0,0,0,8.689,0Zm2.247,8.689a2.249,2.249,0,0,1-2.247,2.247H3.312A2.248,2.248,0,0,1,1.065,8.689V3.311A2.249,2.249,0,0,1,3.311,1.065H8.689a2.249,2.249,0,0,1,2.247,2.247V8.689ZM6,2.909A3.092,3.092,0,1,0,9.093,6,3.1,3.1,0,0,0,6,2.909ZM6,8.028A2.028,2.028,0,1,1,8.028,6,2.03,2.03,0,0,1,6,8.028ZM9.775,2.233a.781.781,0,1,1-.552-.228A.785.785,0,0,1,9.775,2.233Z"/>
</svg>