<svg xmlns="http://www.w3.org/2000/svg" width="448.427" height="448.427" viewBox="0 0 448.427 448.427">
  <g id="Group_693" data-name="Group 693" transform="translate(-415.507 -236.226)" opacity="0.1">
    <path id="Path_114" data-name="Path 114" d="M500.008,281.09c-17.853,5.569-30.307,16-41.209,26.422h41.209Z" transform="translate(363.926 377.141)" fill="#fff"/>
    <path id="Path_115" data-name="Path 115" d="M415.507,281.089v26.432h41.275C445.861,297.089,433.4,286.648,415.507,281.089Z" transform="translate(0 377.132)" fill="#fff"/>
    <path id="Path_116" data-name="Path 116" d="M501.127,280.651c-34.39,0-53.277,15.417-69.127,30.552H570.244C554.395,296.068,535.516,280.651,501.127,280.651Z" transform="translate(138.645 373.45)" fill="#fff"/>
    <path id="Path_117" data-name="Path 117" d="M765.816,321.484c-25.3,0-37.239-11.6-52.365-26.281-16.856-16.367-35.961-34.925-73.68-34.925s-56.823,18.559-73.689,34.925c-15.116,14.683-27.062,26.281-52.365,26.281s-37.258-11.6-52.374-26.281c-12.078-11.729-25.435-24.466-45.837-30.805v33.026c8.983,4.787,16.311,11.767,24.523,19.734,16.856,16.376,35.96,34.925,73.689,34.925s56.833-18.549,73.689-34.925c15.116-14.683,27.062-26.281,52.365-26.281s37.24,11.6,52.365,26.281c16.856,16.376,35.96,34.925,73.68,34.925s56.814-18.549,73.67-34.925c8.184-7.948,15.492-14.918,24.447-19.706V264.406c-20.365,6.359-33.712,19.085-45.78,30.806C803.047,309.886,791.11,321.484,765.816,321.484Z" transform="translate(0 202.18)" fill="#fff"/>
    <path id="Path_118" data-name="Path 118" d="M440.029,296.783c16.856,16.376,35.96,34.926,73.689,34.926s56.833-18.549,73.689-34.926C602.523,282.1,614.469,270.5,639.772,270.5s37.24,11.6,52.365,26.281c16.856,16.376,35.96,34.926,73.68,34.926s56.814-18.549,73.67-34.926c8.184-7.958,15.492-14.918,24.447-19.706V244.032c-20.365,6.359-33.712,19.085-45.78,30.806-15.107,14.674-27.043,26.272-52.337,26.272s-37.239-11.6-52.365-26.281C696.6,258.461,677.491,239.9,639.772,239.9s-56.823,18.559-73.689,34.925c-15.116,14.683-27.062,26.281-52.365,26.281s-37.258-11.6-52.374-26.281c-12.078-11.73-25.435-24.466-45.837-30.805v33.026C424.49,281.836,431.818,288.815,440.029,296.783Z" transform="translate(0 30.91)" fill="#fff"/>
    <path id="Path_119" data-name="Path 119" d="M818.153,285.025C803.047,299.7,791.11,311.3,765.816,311.3s-37.239-11.6-52.365-26.281c-16.856-16.367-35.961-34.926-73.68-34.926s-56.823,18.559-73.689,34.926C550.967,299.7,539.021,311.3,513.718,311.3s-37.258-11.6-52.374-26.281c-12.078-11.73-25.435-24.466-45.837-30.806v33.026c8.983,4.788,16.311,11.767,24.523,19.734,16.856,16.376,35.96,34.926,73.689,34.926s56.833-18.549,73.689-34.926c15.116-14.683,27.062-26.281,52.365-26.281s37.24,11.6,52.365,26.281c16.856,16.376,35.96,34.926,73.68,34.926s56.814-18.549,73.67-34.926c8.184-7.948,15.492-14.918,24.447-19.706V254.219C843.569,260.578,830.222,273.3,818.153,285.025Z" transform="translate(0 116.545)" fill="#fff"/>
    <path id="Path_120" data-name="Path 120" d="M513.718,362.27c37.719,0,56.833-18.559,73.689-34.926,15.116-14.683,27.062-26.281,52.365-26.281s37.24,11.6,52.365,26.281c16.856,16.367,35.96,34.926,73.68,34.926s56.814-18.559,73.67-34.926c8.184-7.958,15.492-14.918,24.447-19.706V274.594c-20.365,6.359-33.712,19.076-45.78,30.805-15.107,14.674-27.043,26.272-52.337,26.272s-37.239-11.6-52.365-26.281c-16.856-16.367-35.961-34.926-73.68-34.926s-56.823,18.559-73.689,34.926c-15.116,14.683-27.062,26.281-52.365,26.281s-37.258-11.6-52.374-26.281c-12.078-11.73-25.435-24.466-45.837-30.806V307.61c8.983,4.788,16.311,11.767,24.523,19.734C456.885,343.711,475.989,362.27,513.718,362.27Z" transform="translate(0 287.815)" fill="#fff"/>
    <path id="Path_121" data-name="Path 121" d="M487.745,266.8c34.418,0,53.3-15.436,69.156-30.571H418.59C434.449,251.361,453.337,266.8,487.745,266.8Z" transform="translate(25.917 0)" fill="#fff"/>
    <path id="Path_122" data-name="Path 122" d="M514.547,266.8c34.39,0,53.277-15.436,69.127-30.571H445.392C461.251,251.361,480.129,266.8,514.547,266.8Z" transform="translate(251.223 0)" fill="#fff"/>
  </g>
</svg>
