<svg xmlns="http://www.w3.org/2000/svg" width="18.803" height="12.211" viewBox="0 0 18.803 12.211">
  <g id="lenght" transform="translate(-807.418 -730.401)">
    <path id="Path_612" data-name="Path 612" d="M.2,0H-.263A.273.273,0,0,0-.519.287V1.454a.273.273,0,0,0,.256.287H.2a.272.272,0,0,0,.255-.287V.287A.272.272,0,0,0,.2,0" transform="translate(816.804 735.263)" fill="#42b5ff"/>
    <path id="Path_613" data-name="Path 613" d="M.142.4V-.763a.307.307,0,0,0-.075-.2A.241.241,0,0,0-.114-1.05a.273.273,0,0,0-.255.287V.4A.273.273,0,0,0-.114.69.273.273,0,0,0,.142.4" transform="translate(817.867 736.313)" fill="#42b5ff"/>
    <path id="Path_614" data-name="Path 614" d="M.2,0H-.263A.273.273,0,0,0-.519.287V1.454a.273.273,0,0,0,.256.287H.2a.272.272,0,0,0,.255-.287V.287A.272.272,0,0,0,.2,0" transform="translate(816.804 732.049)" fill="#42b5ff"/>
    <path id="Path_615" data-name="Path 615" d="M.142.4V-.763a.3.3,0,0,0-.075-.2A.237.237,0,0,0-.114-1.05a.273.273,0,0,0-.255.287V.4A.273.273,0,0,0-.114.69.273.273,0,0,0,.142.4" transform="translate(817.867 733.1)" fill="#42b5ff"/>
    <path id="Path_616" data-name="Path 616" d="M.629.553h-1.69a.615.615,0,0,1-.575-.647v-.7a.615.615,0,0,1,.575-.647H.629A.616.616,0,0,1,1.2-.792v.7A.616.616,0,0,1,.629.553" transform="translate(825.018 734.996)" fill="#42b5ff"/>
    <path id="Path_617" data-name="Path 617" d="M4.593,1.579A1.126,1.126,0,0,1,3.541.394V-.3A1.126,1.126,0,0,1,4.593-1.49h.791a4.147,4.147,0,0,0-.649-2.3c-.795-.489-5.586-.281-7.81-.213-.343.011-.593.018-.723.021C-11.04-3.5-11.884-.254-11.945.044a3.54,3.54,0,0,0,1.2,1.8c.991.869,3,1.962,6.942,2.228.13,0,.379.01.723.021,2.224.068,7.015.276,7.81-.215a4.136,4.136,0,0,0,.649-2.3Zm-4.332.1A1.565,1.565,0,0,1-1.2,3.329H-4.171A.878.878,0,0,1-4.912,2.9,5.3,5.3,0,0,1-5.583.044a5.3,5.3,0,0,1,.671-2.853.878.878,0,0,1,.741-.431H-1.2A1.565,1.565,0,0,1,.261-1.592Z" transform="translate(819.363 734.509)" fill="#42b5ff"/>
    <path id="Path_618" data-name="Path 618" d="M0,0H18.217" transform="translate(807.711 741.083)" fill="#42b5ff" stroke="#c4c4c6" stroke-linecap="round" stroke-linejoin="round" stroke-width="0.423"/>
    <path id="Path_619" data-name="Path 619" d="M0,0V2.636" transform="translate(807.711 739.765)" fill="#42b5ff" stroke="#c4c4c6" stroke-linecap="round" stroke-linejoin="round" stroke-width="0.423"/>
    <path id="Path_620" data-name="Path 620" d="M0,0V2.636" transform="translate(825.929 739.765)" fill="#42b5ff" stroke="#c4c4c6" stroke-linecap="round" stroke-linejoin="round" stroke-width="0.423"/>
  </g>
</svg>
