<svg xmlns="http://www.w3.org/2000/svg" width="17.265" height="16.498" viewBox="0 0 17.265 16.498">
    <path class="icon_fill" fill="#414141"
          d="M17.265,10.115V16.5h-3.7V10.544c0-1.5-.535-2.518-1.875-2.518a2.026,2.026,0,0,0-1.9,1.352,2.511,2.511,0,0,0-.122.9V16.5h-3.7s.05-10.088,0-11.131h3.7V6.944c-.007.012-.017.024-.024.036h.024V6.944A3.673,3.673,0,0,1,13,5.105c2.436,0,4.261,1.59,4.261,5.009ZM2.093,0a1.928,1.928,0,1,0-.048,3.846h.024A1.929,1.929,0,1,0,2.093,0ZM.221,16.5h3.7V5.367H.221Zm0,0"
          transform="translate(0)"/>
</svg>