<svg xmlns="http://www.w3.org/2000/svg" width="130.718" height="48.099" viewBox="0 0 130.718 48.099">
  <g data-name="Group 491" transform="translate(-415.507 -235.8)">
    <g data-name="Group 330">
      <path data-name="Path 114" d="M463.18,281.09A10.965,10.965,0,0,0,458.8,283.9h4.381Z" fill="#fff"/>
      <path data-name="Path 115" d="M415.507,281.089v2.81h4.388A10.959,10.959,0,0,0,415.507,281.089Z" fill="#fff"/>
      <path data-name="Path 116" d="M439.349,280.651A9.811,9.811,0,0,0,432,283.9h14.7A9.809,9.809,0,0,0,439.349,280.651Z" fill="#fff"/>
      <path data-name="Path 117" d="M452.749,266.784c-2.69,0-3.959-1.233-5.567-2.794-1.792-1.74-3.823-3.713-7.833-3.713s-6.041,1.973-7.834,3.713c-1.607,1.561-2.877,2.794-5.567,2.794s-3.961-1.233-5.568-2.794a12.005,12.005,0,0,0-4.873-3.275v3.511a11.9,11.9,0,0,1,2.607,2.1c1.792,1.741,3.823,3.713,7.834,3.713s6.042-1.972,7.834-3.713c1.607-1.561,2.877-2.794,5.567-2.794s3.959,1.233,5.567,2.794c1.792,1.741,3.823,3.713,7.833,3.713s6.04-1.972,7.832-3.713a11.912,11.912,0,0,1,2.6-2.1v-3.513a12.032,12.032,0,0,0-4.867,3.275C456.707,265.551,455.438,266.784,452.749,266.784Z" fill="#fff"/>
      <path data-name="Path 118" d="M418.114,245.95c1.792,1.741,3.823,3.713,7.834,3.713s6.042-1.972,7.834-3.713c1.607-1.561,2.877-2.794,5.567-2.794s3.959,1.233,5.567,2.794c1.792,1.741,3.823,3.713,7.833,3.713s6.04-1.972,7.832-3.713a11.882,11.882,0,0,1,2.6-2.1v-3.513a12.033,12.033,0,0,0-4.867,3.275c-1.606,1.56-2.875,2.793-5.564,2.793s-3.959-1.233-5.567-2.794c-1.792-1.74-3.823-3.713-7.833-3.713s-6.041,1.973-7.834,3.713c-1.607,1.561-2.877,2.794-5.567,2.794s-3.961-1.233-5.568-2.794a12,12,0,0,0-4.873-3.275v3.511A11.906,11.906,0,0,1,418.114,245.95Z" fill="#fff"/>
      <path data-name="Path 119" d="M458.313,253.8c-1.606,1.56-2.875,2.793-5.564,2.793s-3.959-1.233-5.567-2.794c-1.792-1.74-3.823-3.713-7.833-3.713s-6.041,1.973-7.834,3.713c-1.607,1.561-2.877,2.794-5.567,2.794s-3.961-1.233-5.568-2.794a12,12,0,0,0-4.873-3.275v3.511a11.906,11.906,0,0,1,2.607,2.1c1.792,1.741,3.823,3.713,7.834,3.713s6.042-1.972,7.834-3.713c1.607-1.561,2.877-2.794,5.567-2.794s3.959,1.233,5.567,2.794c1.792,1.741,3.823,3.713,7.833,3.713s6.04-1.972,7.832-3.713a11.911,11.911,0,0,1,2.6-2.095v-3.513A12.032,12.032,0,0,0,458.313,253.8Z" fill="#fff"/>
      <path data-name="Path 120" d="M425.948,280.224c4.01,0,6.042-1.973,7.834-3.713,1.607-1.561,2.877-2.794,5.567-2.794s3.959,1.233,5.567,2.794c1.792,1.74,3.823,3.713,7.833,3.713s6.04-1.973,7.832-3.713a11.883,11.883,0,0,1,2.6-2.1V270.9a12.022,12.022,0,0,0-4.867,3.275c-1.606,1.56-2.875,2.793-5.564,2.793s-3.959-1.233-5.567-2.794c-1.792-1.74-3.823-3.713-7.833-3.713s-6.041,1.973-7.834,3.713c-1.607,1.561-2.877,2.794-5.567,2.794s-3.961-1.233-5.568-2.794a12,12,0,0,0-4.873-3.275v3.511a11.907,11.907,0,0,1,2.607,2.1C419.906,278.251,421.937,280.224,425.948,280.224Z" fill="#fff"/>
      <path data-name="Path 121" d="M425.942,239.476a9.816,9.816,0,0,0,7.352-3.25h-14.7A9.818,9.818,0,0,0,425.942,239.476Z" fill="#fff"/>
      <path data-name="Path 122" d="M452.744,239.476a9.812,9.812,0,0,0,7.349-3.25h-14.7A9.816,9.816,0,0,0,452.744,239.476Z" fill="#fff"/>
    </g>
    <g data-name="Group 332">
      <g data-name="Group 331">
        <path data-name="Path 123" d="M469.023,259.758a6.237,6.237,0,0,1,6.557-6.354,5.58,5.58,0,0,1,5.12,3l-2.247,1.1a3.323,3.323,0,0,0-2.873-1.786,4.037,4.037,0,0,0,0,8.067,3.322,3.322,0,0,0,2.873-1.787l2.247,1.087a5.626,5.626,0,0,1-5.12,3.02A6.247,6.247,0,0,1,469.023,259.758Z" fill="#fff"/>
        <path data-name="Path 124" d="M489.212,265.891l-2.413-4.365h-1.915v4.365h-2.615V253.607h5.746a3.84,3.84,0,0,1,4.143,3.959,3.553,3.553,0,0,1-2.707,3.647l2.781,4.678Zm.258-8.343a1.659,1.659,0,0,0-1.824-1.639h-2.762v3.315h2.762A1.666,1.666,0,0,0,489.47,257.548Z" fill="#fff"/>
        <path data-name="Path 125" d="M493.524,259.758a6.419,6.419,0,1,1,6.428,6.354A6.172,6.172,0,0,1,493.524,259.758Zm10.148,0a3.741,3.741,0,1,0-3.72,4.034A3.714,3.714,0,0,0,503.672,259.758Z" fill="#fff"/>
        <path data-name="Path 126" d="M516.07,265.891l-.773-2.081h-5.268l-.773,2.081H506.29l4.733-12.284H514.3l4.733,12.284Zm-3.407-9.669-1.916,5.286h3.831Z" fill="#fff"/>
        <path data-name="Path 127" d="M521.837,265.891v-9.982h-3.591v-2.3h9.8v2.3h-3.573v9.982Z" fill="#fff"/>
        <path data-name="Path 128" d="M529.722,265.891V253.607h2.615v12.284Z" fill="#fff"/>
        <path data-name="Path 129" d="M543.26,265.891l-.774-2.081h-5.267l-.774,2.081h-2.966l4.734-12.284h3.278l4.734,12.284Zm-3.407-9.669-1.916,5.286h3.831Z" fill="#fff"/>
      </g>
    </g>
    <g data-name="Group 334">
      <g data-name="Group 333">
        <path data-name="Path 130" d="M481.2,248.084v-8.858l-3.462,8.858H476.6l-3.463-8.858v8.858h-2.615V235.8h3.665l2.983,7.68,2.983-7.68h3.684v12.284Z" fill="#fff"/>
        <path data-name="Path 131" d="M489.692,248.084v-5.027l-4.714-7.257h2.984L491,240.718l3.039-4.918H497l-4.7,7.257v5.027Z" fill="#fff"/>
      </g>
    </g>
    <g data-name="Group 336">
      <g data-name="Group 335">
        <path data-name="Path 132" d="M469.021,277.015a6.237,6.237,0,0,1,6.557-6.354,5.58,5.58,0,0,1,5.12,3l-2.247,1.105a3.321,3.321,0,0,0-2.873-1.787,4.037,4.037,0,0,0,0,8.067,3.322,3.322,0,0,0,2.873-1.786l2.247,1.087a5.626,5.626,0,0,1-5.12,3.02A6.247,6.247,0,0,1,469.021,277.015Z" fill="#fff"/>
        <path data-name="Path 133" d="M489.21,283.148l-2.413-4.365h-1.915v4.365h-2.615V270.864h5.746a3.84,3.84,0,0,1,4.143,3.959,3.553,3.553,0,0,1-2.707,3.647l2.781,4.678Zm.258-8.343a1.658,1.658,0,0,0-1.823-1.639h-2.763v3.315h2.763A1.666,1.666,0,0,0,489.468,274.8Z" fill="#fff"/>
        <path data-name="Path 134" d="M494.111,278.23v-7.366h2.653v7.293a2.882,2.882,0,1,0,5.764,0v-7.293H505.2v7.366c0,3.04-1.8,5.139-5.544,5.139S494.111,281.27,494.111,278.23Z" fill="#fff"/>
        <path data-name="Path 135" d="M507.633,283.148V270.864h2.615v12.284Z" fill="#fff"/>
        <path data-name="Path 136" d="M511.833,281.417l1.437-2.044a5.4,5.4,0,0,0,3.9,1.675c1.455,0,2.137-.644,2.137-1.362,0-2.137-7.073-.645-7.073-5.268,0-2.044,1.768-3.739,4.659-3.739a6.839,6.839,0,0,1,4.79,1.713l-1.456,1.952A5.28,5.28,0,0,0,516.658,273c-1.1,0-1.731.479-1.731,1.215,0,1.934,7.053.627,7.053,5.213,0,2.247-1.62,3.941-4.917,3.941A7.092,7.092,0,0,1,511.833,281.417Z" fill="#fff"/>
        <path data-name="Path 137" d="M523.732,283.148V270.864h8.694v2.3h-6.078v2.578H532.3v2.3h-5.949v2.8h6.078v2.3Z" fill="#fff"/>
      </g>
    </g>
  </g>
</svg>
