<svg xmlns="http://www.w3.org/2000/svg" width="12.448" height="22" viewBox="0 0 12.448 22">
  <path id="Icon_metro-money" data-name="Icon metro-money" d="M17.392,16.082c-2.774-.721-3.667-1.461-3.667-2.622,0-1.332,1.228-2.267,3.3-2.267,2.176,0,2.982,1.039,3.056,2.567h2.7A4.866,4.866,0,0,0,18.858,9.1V6.427H15.192v2.64c-2.371.519-4.278,2.047-4.278,4.412,0,2.823,2.341,4.229,5.744,5.048,3.062.733,3.667,1.8,3.667,2.952,0,.837-.593,2.182-3.3,2.182-2.518,0-3.514-1.131-3.642-2.567h-2.7c.153,2.677,2.151,4.174,4.5,4.681v2.652h3.667V25.8c2.377-.458,4.278-1.833,4.278-4.345,0-3.459-2.97-4.644-5.744-5.372Z" transform="translate(-10.688 -6.427)" fill="#1593e6"/>
</svg>
