<svg xmlns="http://www.w3.org/2000/svg" width="23.952" height="23.952" viewBox="0 0 23.952 23.952">
  <g id="more-images" transform="translate(-594.048 -304.048)">
    <g id="icon-date" transform="translate(618 329.861) rotate(180)">
      <path id="Path_19" data-name="Path 19" d="M21.851,1.862H2.1A2.1,2.1,0,0,0,0,3.963V23.712a2.1,2.1,0,0,0,2.1,2.1H21.851a2.1,2.1,0,0,0,2.1-2.1V3.963A2.1,2.1,0,0,0,21.851,1.862Zm1.013,21.851a1.018,1.018,0,0,1-1.013,1.013H2.1a1.018,1.018,0,0,1-1.013-1.013V8.089H22.863ZM1.089,7V3.963A1.018,1.018,0,0,1,2.1,2.95H21.872a1.018,1.018,0,0,1,1.013,1.013V7H1.089Z" fill="#b8b8b8"/>
    </g>
    <g id="Group_965" data-name="Group 965" transform="translate(-1)">
      <g id="Subtraction_1" data-name="Subtraction 1" transform="translate(5590 15373)" fill="none" stroke-linecap="round" stroke-linejoin="round">
        <path d="M-4983.372-15054h-6.949a.991.991,0,0,1-.859-.489.993.993,0,0,1-.018-.989l4.82-8.9a.987.987,0,0,1,.879-.524.987.987,0,0,1,.879.524l2.643,4.88-2.208,4.017a.989.989,0,0,0,.016.989.983.983,0,0,0,.8.491Z" stroke="none"/>
        <path d="M -4985.3115234375 -15054.998046875 C -4985.31201171875 -15055.328125 -4985.228515625 -15055.6591796875 -4985.0615234375 -15055.9619140625 L -4983.1162109375 -15059.5009765625 L -4985.4990234375 -15063.900390625 L -4990.31884765625 -15055 C -4990.3193359375 -15055 -4990.3193359375 -15054.9990234375 -4990.31982421875 -15054.998046875 L -4985.3115234375 -15054.998046875 M -4983.3720703125 -15053.998046875 L -4990.3212890625 -15053.998046875 C -4990.6767578125 -15053.998046875 -4990.998046875 -15054.1806640625 -4991.18017578125 -15054.4873046875 C -4991.36181640625 -15054.794921875 -4991.36865234375 -15055.1640625 -4991.1982421875 -15055.4765625 L -4986.3779296875 -15064.376953125 C -4986.2001953125 -15064.705078125 -4985.87158203125 -15064.9013671875 -4985.4990234375 -15064.9013671875 C -4985.1259765625 -15064.9013671875 -4984.79736328125 -15064.705078125 -4984.61962890625 -15064.376953125 L -4981.97705078125 -15059.4970703125 L -4984.18505859375 -15055.48046875 C -4984.35693359375 -15055.1689453125 -4984.35107421875 -15054.798828125 -4984.16943359375 -15054.4912109375 C -4983.99755859375 -15054.19921875 -4983.70703125 -15054.0205078125 -4983.3720703125 -15054 L -4983.3720703125 -15053.998046875 Z" stroke="none" fill="#b8b8b8"/>
      </g>
      <g id="Polygon_18" data-name="Polygon 18" transform="translate(604 309)" fill="none" stroke-linecap="round" stroke-linejoin="round">
        <path d="M4.624,1.593a1,1,0,0,1,1.752,0l3.809,6.925A1,1,0,0,1,9.309,10H1.691A1,1,0,0,1,.815,8.518Z" stroke="none"/>
        <path d="M 5.500002384185791 2.075037956237793 C 5.500001430511475 2.075039863586426 5.500000476837158 2.075040817260742 5.5 2.075042724609375 L 1.691269874572754 8.999992370605469 C 1.691268920898438 8.999994277954102 1.691267967224121 8.999996185302734 1.691267013549805 8.999998092651367 C 1.691267967224121 9 1.691268920898438 9.000000953674316 1.691269874572754 9.000001907348633 C 1.691269874572754 9.000001907348633 1.691269874572754 9.000001907348633 1.691269874572754 9.000001907348633 L 9.308719635009766 9.000001907348633 L 5.500010013580322 2.075052261352539 C 5.500007629394531 2.075047492980957 5.500004768371582 2.075042724609375 5.500002384185791 2.075037956237793 M 5.5 1.075037002563477 C 5.843127727508545 1.075037002563477 6.186254978179932 1.247732162475586 6.376220226287842 1.593122482299805 L 10.18494033813477 8.518082618713379 C 10.55148983001709 9.184532165527344 10.0693302154541 10.00000190734863 9.308730125427246 10.00000190734863 L 1.691269874572754 10.00000190734863 C 0.9306697845458984 10.00000190734863 0.4485101699829102 9.184532165527344 0.8150501251220703 8.518082618713379 L 4.623779773712158 1.593122482299805 C 4.813745021820068 1.247732162475586 5.156872272491455 1.075037002563477 5.5 1.075037002563477 Z" stroke="none" fill="#b8b8b8"/>
      </g>
    </g>
  </g>
</svg>
