<svg xmlns="http://www.w3.org/2000/svg" width="18" height="9" viewBox="0 0 18 9">
  <path id="passengers" d="M13.5,15h-9l0-.467c0-.944.075-1.489,1.191-1.747,1.263-.292,2.508-.552,1.909-1.657C5.825,7.856,7.094,6,9,6c1.868,0,3.169,1.787,1.4,5.129-.581,1.1.62,1.359,1.909,1.657,1.117.258,1.192.8,1.192,1.75l0,.464Zm3.608-1.66c-.968-.224-1.867-.419-1.432-1.243C17,9.59,16.026,8.25,14.624,8.25a1.609,1.609,0,0,0-1.686,1.743c0,2.927,1.7,1.328,1.684,5.007H18v-.347c0-.709-.055-1.12-.894-1.313ZM0,15H3.377c-.016-3.679,1.684-2.079,1.684-5.007A1.609,1.609,0,0,0,3.376,8.25C1.974,8.25,1,9.59,2.326,12.1c.436.824-.464,1.019-1.432,1.243-.839.193-.895.6-.895,1.313V15Z" transform="translate(0 -6)" fill="#42b5ff"/>
</svg>
