<svg id="port" xmlns="http://www.w3.org/2000/svg" width="13.818" height="16.3" viewBox="0 0 13.818 16.3">
  <g id="Group_968" data-name="Group 968">
    <path id="Path_666" data-name="Path 666" d="M6.909,16.3a.719.719,0,0,1-.4-.134C5.769,15.562,0,10.531,0,6.909a6.909,6.909,0,0,1,13.818,0c0,3.622-5.769,8.653-6.44,9.257a1.706,1.706,0,0,1-.47.134Zm0-14.958A5.554,5.554,0,0,0,1.342,6.909c0,2.348,3.689,6.171,5.567,7.848,1.878-1.677,5.567-5.5,5.567-7.848A5.641,5.641,0,0,0,6.909,1.342Z" fill="#414141"/>
  </g>
  <g id="Group_969" data-name="Group 969" transform="translate(3.555 3.555)">
    <path id="Path_667" data-name="Path 667" d="M8.654,12.008a3.354,3.354,0,1,1,3.354-3.354,3.408,3.408,0,0,1-3.354,3.354Zm0-5.366a2.012,2.012,0,1,0,2.012,2.012A2.018,2.018,0,0,0,8.654,6.642Z" transform="translate(-5.3 -5.3)" fill="#414141"/>
  </g>
</svg>
