<svg xmlns="http://www.w3.org/2000/svg" width="21.999" height="22.001" viewBox="0 0 21.999 22.001">
  <path id="Subtraction_1" data-name="Subtraction 1" d="M-4527,22h-11.535a.464.464,0,0,1-.364-.173.452.452,0,0,1-.088-.383c.194-.859.973-2.077,3.581-3a10.9,10.9,0,0,1,1.926-.4c.388-.056.754-.109,1.059-.178a2.989,2.989,0,0,0,1.381-.636,12.194,12.194,0,0,0,.092-2.824,8.511,8.511,0,0,1-.654-1.244,16.023,16.023,0,0,1-.48-2.171c-.049,0-.485-.051-.636-.825a7.286,7.286,0,0,0-.237-.872,2.671,2.671,0,0,1-.188-1.047c.032-.623.355-.641.393-.641a.058.058,0,0,1-.006-.016,11.414,11.414,0,0,1-.375-2.923,4.395,4.395,0,0,1,1.259-3.2A5.272,5.272,0,0,1-4527.994,0a5.207,5.207,0,0,1,3.868,1.485,4.45,4.45,0,0,1,1.265,3.19,10.148,10.148,0,0,1-.39,2.939c.06,0,.364.041.4.641a2.679,2.679,0,0,1-.187,1.046l0,.007a7.255,7.255,0,0,0-.234.866c-.165.815-.631.825-.636.825a.079.079,0,0,1,0,.022,15.37,15.37,0,0,1-.479,2.149,8.527,8.527,0,0,1-.653,1.244,12.163,12.163,0,0,0,.091,2.824,2.986,2.986,0,0,0,1.381.636c.3.068.67.121,1.058.177a10.9,10.9,0,0,1,1.926.4c2.607.919,3.387,2.137,3.582,3a.458.458,0,0,1-.09.385.456.456,0,0,1-.356.171H-4522V21a1,1,0,0,0-1-1h-3a1,1,0,0,0-1,1v1Z" transform="translate(4539)" fill="#1593e6"/>
</svg>
