<svg xmlns="http://www.w3.org/2000/svg" width="16.681" height="12" viewBox="0 0 16.681 12">
  <g id="Group_761" data-name="Group 761" transform="translate(-775.792 -841)">
    <path id="Path_592" data-name="Path 592" d="M1.062.572a.194.194,0,0,0-.05-.146L-.591-1.4A.2.2,0,0,0-.73-1.464a.2.2,0,0,0-.147.05A8.3,8.3,0,0,0-2.695.853a.2.2,0,0,0-.017.153.206.206,0,0,0,.1.121L-.483,2.289a.2.2,0,0,0,.1.025.2.2,0,0,0,.178-.106,5.488,5.488,0,0,1,1.2-1.5A.208.208,0,0,0,1.062.572" transform="translate(779.506 844.447)" fill="#42b5ff"/>
    <path id="Path_593" data-name="Path 593" d="M.326.929a.2.2,0,0,0,.179.107A.2.2,0,0,0,.6,1.012,5.494,5.494,0,0,1,2.427.426.2.2,0,0,0,2.6.2L2.274-2.2a.2.2,0,0,0-.228-.174,8.3,8.3,0,0,0-2.774.891.2.2,0,0,0-.085.273Z" transform="translate(780.957 843.415)" fill="#42b5ff"/>
    <path id="Path_594" data-name="Path 594" d="M.81.18-1.535-.455a.2.2,0,0,0-.154.021.2.2,0,0,0-.095.122,8.362,8.362,0,0,0-.291,2.184c0,.127,0,.253.01.388a.2.2,0,0,0,.2.193h.01L.575,2.341a.205.205,0,0,0,.139-.065A.2.2,0,0,0,.767,2.13c0-.09-.006-.175-.006-.257A5.538,5.538,0,0,1,.952.428.2.2,0,0,0,.81.18" transform="translate(777.866 847.415)" fill="#42b5ff"/>
    <path id="Path_595" data-name="Path 595" d="M.916.22a8.276,8.276,0,0,0-2.8-.783.2.2,0,0,0-.149.044.2.2,0,0,0-.072.136l-.235,2.414a.2.2,0,0,0,.182.221,5.437,5.437,0,0,1,1.848.516.212.212,0,0,0,.088.019A.217.217,0,0,0-.16,2.777a.2.2,0,0,0,.115-.1L1.01.49A.2.2,0,0,0,.916.22" transform="translate(786.835 841.564)" fill="#42b5ff"/>
    <path id="Path_596" data-name="Path 596" d="M1.064.672A.2.2,0,0,0,1.042.519a8.362,8.362,0,0,0-1.9-2.2.213.213,0,0,0-.149-.044.2.2,0,0,0-.136.074L-2.681.234a.2.2,0,0,0-.043.149A.206.206,0,0,0-2.65.519,5.513,5.513,0,0,1-1.392,1.971a.206.206,0,0,0,.174.1.2.2,0,0,0,.1-.029L.971.8A.2.2,0,0,0,1.064.672" transform="translate(790.255 844.502)" fill="#42b5ff"/>
    <path id="Path_597" data-name="Path 597" d="M.762.04A.2.2,0,0,0,.509-.092L-1.81.632a.2.2,0,0,0-.132.253,5.483,5.483,0,0,1,.25,1.646c0,.082,0,.167-.006.257a.2.2,0,0,0,.053.146A.194.194,0,0,0-1.5,3l2.426.113h.01a.2.2,0,0,0,.2-.193c.006-.135.01-.261.01-.388A8.286,8.286,0,0,0,.762.04" transform="translate(791.331 846.756)" fill="#42b5ff"/>
    <path id="Path_598" data-name="Path 598" d="M.907,1.1C.882,1.072.857,1.05.83,1.026L-.157-2.656a.208.208,0,0,0-.2-.154.209.209,0,0,0-.2.15L-1.634.989a1.868,1.868,0,0,0-.145.133,1.877,1.877,0,0,0-.544,1.345A1.875,1.875,0,0,0-1.753,3.8a1.889,1.889,0,0,0,1.347.544A1.9,1.9,0,0,0,.932,3.778a1.888,1.888,0,0,0,.544-1.346A1.886,1.886,0,0,0,.907,1.1" transform="translate(784.557 848.655)" fill="#42b5ff"/>
  </g>
</svg>
