<svg xmlns="http://www.w3.org/2000/svg" width="18.563" height="22" viewBox="0 0 18.563 22">
  <path id="Icon_metro-spoon-fork" data-name="Icon metro-spoon-fork" d="M7.66,1.928c-2.278,0-4.125,2.155-4.125,4.813a4.722,4.722,0,0,0,3.173,4.684L6.025,22.556a1.281,1.281,0,0,0,1.291,1.372H8a1.281,1.281,0,0,0,1.291-1.372L8.611,11.424a4.722,4.722,0,0,0,3.173-4.684c0-2.658-1.847-4.813-4.125-4.813Zm13.865,0L20.378,8.8h-.859l-.573-6.875h-.573L17.8,8.8h-.859L15.8,1.928h-.573v8.938a.688.688,0,0,0,.688.688H17.7l-.675,11a1.281,1.281,0,0,0,1.291,1.372H19a1.281,1.281,0,0,0,1.291-1.372l-.675-11h1.79a.688.688,0,0,0,.688-.688V1.928Z" transform="translate(-3.535 -1.928)" fill="#1593e6"/>
</svg>
