<svg xmlns="http://www.w3.org/2000/svg" width="19" height="19" viewBox="0 0 19 19">
    <path class="icon_fill" fill="#1593e6"
          d="M9.5,1.583A7.917,7.917,0,1,1,1.583,9.5,7.926,7.926,0,0,1,9.5,1.583ZM9.5,0A9.5,9.5,0,1,0,19,9.5,9.5,9.5,0,0,0,9.5,0Zm3.167,11.149c0-1.7-1.767-2.171-3.122-2.807-.823-.427-.719-1.448.46-1.517a5.067,5.067,0,0,1,1.934.368l.287-1.3a7.3,7.3,0,0,0-1.934-.333V4.75H9.5v.845A2.4,2.4,0,0,0,7.138,7.851c0,1.93,2.254,2.225,2.991,2.567,1.005.45.819,1.385-.09,1.592a4.817,4.817,0,0,1-2.553-.427l-.36,1.3A5.491,5.491,0,0,0,9.5,13.46v.79h.792v-.834c1.312-.184,2.377-.907,2.375-2.267Z"/>
</svg>