<svg xmlns="http://www.w3.org/2000/svg" width="19.365" height="15.734" viewBox="0 0 19.365 15.734">
    <path class="icon_fill" fill="#414141"
          d="M19.365,1.861a8.249,8.249,0,0,1-2.285.635A4.073,4.073,0,0,0,18.836.3a8.11,8.11,0,0,1-2.527.968A3.929,3.929,0,0,0,13.4,0,3.971,3.971,0,0,0,9.441,3.979a3.554,3.554,0,0,0,.106.908A11.355,11.355,0,0,1,1.346.726a3.913,3.913,0,0,0-.545,2,3.955,3.955,0,0,0,1.77,3.3A3.926,3.926,0,0,1,.787,5.537v.045a4.006,4.006,0,0,0,3.177,3.9,4.7,4.7,0,0,1-1.044.136,3.21,3.21,0,0,1-.756-.076A3.977,3.977,0,0,0,5.87,12.3,8.005,8.005,0,0,1,.938,13.995c-.318,0-.62-.015-.938-.045a11.171,11.171,0,0,0,6.1,1.785,11.223,11.223,0,0,0,11.3-11.3l-.015-.514a8.013,8.013,0,0,0,1.982-2.058Zm0,0"
          transform="translate(0 0)"/>
</svg>