<svg xmlns="http://www.w3.org/2000/svg" width="16" height="16" viewBox="0 0 16 16">
  <path id="vessel" d="M9076.332,17050.332v-1.232a6.109,6.109,0,0,1-3.184-1.316l-.882.881a.641.641,0,0,1-.933,0,.648.648,0,0,1,0-.934l.883-.881a6.112,6.112,0,0,1-1.313-3.184h-1.238a.668.668,0,0,1,0-1.336h1.238a6.107,6.107,0,0,1,1.314-3.182l-.884-.883a.66.66,0,0,1,.933-.934l.884.885a6.1,6.1,0,0,1,3.182-1.314v-1.234a.667.667,0,1,1,1.335,0v1.234a6.107,6.107,0,0,1,3.182,1.314l.884-.885a.646.646,0,0,1,.934,0,.64.64,0,0,1,0,.934l-.885.885a6.092,6.092,0,0,1,1.314,3.18h1.239a.668.668,0,0,1,0,1.336H9083.1a6.107,6.107,0,0,1-1.314,3.182l.884.883a.64.64,0,0,1,0,.934.725.725,0,0,1-.467.2.606.606,0,0,1-.467-.2l-.882-.883a6.1,6.1,0,0,1-3.184,1.318v1.232a.667.667,0,1,1-1.335,0Zm0-2.578v-3.154l-2.233,2.232A4.758,4.758,0,0,0,9076.332,17047.754Zm1.335,0a4.757,4.757,0,0,0,2.234-.922l-2.234-2.232Zm-4.5-1.854,2.233-2.234h-3.155A4.772,4.772,0,0,0,9073.166,17045.9Zm7.668,0a4.782,4.782,0,0,0,.922-2.234H9078.6Zm.922-3.57a4.785,4.785,0,0,0-.922-2.232l-2.233,2.232Zm-6.356,0-2.233-2.232a4.775,4.775,0,0,0-.922,2.232Zm2.268-.932,2.232-2.232a4.788,4.788,0,0,0-2.232-.92Zm-1.335,0v-3.152a4.792,4.792,0,0,0-2.232.92Z" transform="translate(-9069.002 -17035)" fill="#414141"/>
</svg>
