<svg xmlns="http://www.w3.org/2000/svg" width="22" height="22" viewBox="0 0 22 22" class="">
  <path id="Icon_awesome-plus-circle" data-name="Icon awesome-plus-circle" d="M11.563.563a11,11,0,1,0,11,11A11,11,0,0,0,11.563.563ZM17.95,12.8a.534.534,0,0,1-.532.532H13.337v4.081a.534.534,0,0,1-.532.532H10.321a.534.534,0,0,1-.532-.532V13.337H5.708a.534.534,0,0,1-.532-.532V10.321a.534.534,0,0,1,.532-.532H9.788V5.708a.534.534,0,0,1,.532-.532H12.8a.534.534,0,0,1,.532.532V9.788h4.081a.534.534,0,0,1,.532.532Z" transform="translate(-0.563 -0.563)" fill="#1593e6"/>
</svg>